# xmcd CD database file
#
# Track frame offsets:
#	150
#	13312
#	28853
#	43126
#	57413
#	71988
#	84226
#	102802
#	115528
#	131700
#	145930
#	160650
#	176526
#	189183
#
# Disc length: 2713 seconds
#
# Revision: 0
# Processed by: cddbd v1.5.2PL0 Copyright (c) Steve Scherf et al.
# Submitted via: CDex 1.51
#
DISCID=bd0a970e
DTITLE=Various Artist - Classic Country Mix
DYEAR=1900
DGENRE=Country
TTITLE0=The Race Is On
TTITLE1=You're The Reason Got Made Oklahoma
TTITLE2=Country Boy
TTITLE3=Country Roads
TTITLE4=Meet In the Middle
TTITLE5=El Vira
TTITLE6=She's In Love With The Boy
TTITLE7=9 To 5
TTITLE8=Forever And Ever Amen
TTITLE9=Thank God I'm A Country Boy
TTITLE10=Tulsa Time
TTITLE11=The Gambler
TTITLE12=Too Much Fun
TTITLE13=I Am The Greatest
EXTD=
EXTT0=
EXTT1=
EXTT2=
EXTT3=
EXTT4=
EXTT5=
EXTT6=
EXTT7=
EXTT8=
EXTT9=
EXTT10=
EXTT11=
EXTT12=
EXTT13=
PLAYORDER=
